<svg width="197" height="67" viewBox="0 0 197 67" fill="none" xmlns="http://www.w3.org/2000/svg">
<path d="M1.82501 38V1.535H10.75V18.569L10.342 24.791H10.444C11.532 22.241 12.552 20.167 13.504 18.569L23.602 1.535H32.629V38H23.704V21.017L24.112 14.795H24.01C22.922 17.345 21.902 19.419 20.95 21.017L10.801 38H1.82501Z" fill="white"/>
<path d="M40.2742 38V1.535H49.1992V16.121H62.4592V1.535H71.3842V38H62.4592V23.72H49.1992V38H40.2742Z" fill="white"/>
<path d="M79.0223 38V1.535H87.9473V15.611H91.6193L99.1673 1.535H108.755L98.9123 18.977V19.079L109.316 38H99.3203L91.6193 23.21H87.9473V38H79.0223Z" fill="white"/>
<path d="M110.353 19.538C110.353 14.268 112.155 9.84801 115.759 6.278C119.397 2.708 123.953 0.923004 129.427 0.923004C134.901 0.923004 139.44 2.708 143.044 6.278C146.682 9.84801 148.501 14.268 148.501 19.538C148.501 24.944 146.682 29.483 143.044 33.155C139.44 36.793 134.901 38.612 129.427 38.612C123.953 38.612 119.397 36.793 115.759 33.155C112.155 29.483 110.353 24.944 110.353 19.538ZM119.584 19.538C119.584 22.632 120.536 25.233 122.44 27.341C124.344 29.415 126.673 30.452 129.427 30.452C132.181 30.452 134.51 29.415 136.414 27.341C138.318 25.233 139.27 22.632 139.27 19.538C139.27 16.58 138.318 14.098 136.414 12.092C134.51 10.086 132.181 9.083 129.427 9.083C126.673 9.083 124.344 10.086 122.44 12.092C120.536 14.098 119.584 16.58 119.584 19.538Z" fill="white"/>
<path d="M152.75 38L155.759 1.535H165.449L170.753 16.937L172.589 22.955H172.691C173.371 20.507 173.983 18.501 174.527 16.937L179.831 1.535H189.521L192.479 38H183.554L182.432 21.578C182.364 20.762 182.33 19.844 182.33 18.824C182.33 17.804 182.347 16.988 182.381 16.376L182.432 15.458H182.33C181.514 18.008 180.834 20.048 180.29 21.578L176.465 32.135H168.815L164.99 21.578L162.95 15.458H162.848C162.984 17.702 162.984 19.742 162.848 21.578L161.726 38H152.75Z" fill="white"/>
<path d="M0.322021 63V43.83H3.80502V51.957H12.58V43.83H16.036V63H12.58V54.954H3.80502V63H0.322021Z" fill="#70F730"/>
<path d="M19.0645 56.115C19.0645 53.991 19.7125 52.263 21.0085 50.931C22.3225 49.581 24.0145 48.906 26.0845 48.906C27.9925 48.906 29.4865 49.527 30.5665 50.769C31.6464 51.993 32.1864 53.55 32.1864 55.44C32.1864 55.746 32.1505 56.187 32.0785 56.763H22.6015C22.7095 57.915 23.1505 58.815 23.9245 59.463C24.6985 60.093 25.6345 60.408 26.7325 60.408C28.1005 60.408 29.4145 59.904 30.6745 58.896L32.0245 61.353C31.3405 61.965 30.4945 62.451 29.4865 62.811C28.4965 63.153 27.4975 63.324 26.4895 63.324C24.2755 63.324 22.4845 62.631 21.1165 61.245C19.7485 59.841 19.0645 58.131 19.0645 56.115ZM22.6825 54.414H28.7575C28.7395 53.514 28.4695 52.803 27.9475 52.281C27.4435 51.759 26.7955 51.498 26.0035 51.498C25.1395 51.498 24.4104 51.768 23.8165 52.308C23.2224 52.83 22.8445 53.532 22.6825 54.414Z" fill="#70F730"/>
<path d="M38.5757 60.246H43.6787V51.984H40.2497V52.632C40.2497 55.854 39.6917 58.392 38.5757 60.246ZM33.4458 60.246H35.1468C36.3708 58.446 36.9827 55.728 36.9827 52.092V49.23H47.1077V60.246H49.0788V66.24H45.9738V63H36.6317V66.24H33.4458V60.246Z" fill="#70F730"/>
<path d="M51.5684 63V49.23H57.9674C59.3894 49.23 60.5144 49.545 61.3424 50.175C62.1884 50.787 62.6114 51.66 62.6114 52.794C62.6114 53.442 62.4494 54.045 62.1254 54.603C61.8194 55.143 61.3784 55.548 60.8024 55.818V55.845C61.5944 56.043 62.1974 56.439 62.6114 57.033C63.0254 57.609 63.2324 58.266 63.2324 59.004C63.2324 60.318 62.7554 61.317 61.8014 62.001C60.8654 62.667 59.6324 63 58.1024 63H51.5684ZM54.9974 54.9H57.2384C57.8684 54.9 58.3454 54.738 58.6694 54.414C58.9934 54.072 59.1554 53.631 59.1554 53.091C59.1554 52.011 58.4984 51.471 57.1844 51.471H54.9974V54.9ZM54.9974 60.732H57.5084C58.2464 60.732 58.8044 60.57 59.1824 60.246C59.5784 59.904 59.7764 59.454 59.7764 58.896C59.7764 58.32 59.5784 57.87 59.1824 57.546C58.7864 57.204 58.2284 57.033 57.5084 57.033H54.9974V60.732Z" fill="#70F730"/>
<path d="M66.0968 63V49.23H69.3638V56.601C69.3638 57.267 69.3368 57.816 69.2828 58.248H69.3368C69.4088 58.086 69.7508 57.537 70.3628 56.601L75.4658 49.23H78.7868V63H75.5198V55.656C75.5198 55.26 75.5468 54.711 75.6008 54.009H75.5468C75.4928 54.135 75.1508 54.684 74.5208 55.656L69.4178 63H66.0968Z" fill="#70F730"/>
<path d="M80.9858 63L85.1978 55.926V55.872L81.3368 49.23H84.9008L87.9518 54.576H89.6258V49.23H92.8388V54.576H94.5128L97.5638 49.23H101.128L97.2938 55.872V55.926L101.506 63H97.7258L94.5668 57.465H92.8388V63H89.6258V57.465H87.8978L84.7388 63H80.9858Z" fill="#70F730"/>
<path d="M103.67 63V49.23H106.937V56.601C106.937 57.267 106.91 57.816 106.856 58.248H106.91C106.982 58.086 107.324 57.537 107.936 56.601L113.039 49.23H116.36V63H113.093V55.656C113.093 55.26 113.12 54.711 113.174 54.009H113.12C113.066 54.135 112.724 54.684 112.094 55.656L106.991 63H103.67Z" fill="#70F730"/>
<path d="M119.477 63L120.719 49.23H124.607L127.523 56.331L128.198 58.086H128.252C128.504 57.438 128.729 56.853 128.927 56.331L131.897 49.23H135.731L136.973 63H133.679L133.193 55.548L133.22 53.199H133.166C132.914 53.883 132.644 54.549 132.356 55.197L129.656 61.272H126.821L124.121 55.224L123.284 53.199H123.23L123.257 55.548L122.771 63H119.477Z" fill="#70F730"/>
<path d="M141.459 61.299C140.001 59.931 139.272 58.203 139.272 56.115C139.272 54.027 140.001 52.308 141.459 50.958C142.917 49.59 144.699 48.906 146.805 48.906C148.929 48.906 150.72 49.59 152.178 50.958C153.654 52.308 154.392 54.027 154.392 56.115C154.392 58.203 153.663 59.931 152.205 61.299C150.747 62.649 148.956 63.324 146.832 63.324C144.708 63.324 142.917 62.649 141.459 61.299ZM142.755 56.115C142.755 57.375 143.142 58.41 143.916 59.22C144.708 60.012 145.68 60.408 146.832 60.408C147.984 60.408 148.956 60.012 149.748 59.22C150.54 58.41 150.936 57.375 150.936 56.115C150.936 54.873 150.531 53.847 149.721 53.037C148.929 52.227 147.966 51.822 146.832 51.822C145.698 51.822 144.735 52.227 143.943 53.037C143.151 53.847 142.755 54.873 142.755 56.115Z" fill="#70F730"/>
<path d="M156.385 56.115C156.385 54.099 157.069 52.398 158.437 51.012C159.823 49.608 161.632 48.906 163.864 48.906C164.854 48.906 165.826 49.077 166.78 49.419C167.734 49.761 168.526 50.274 169.156 50.958L167.617 53.307C166.627 52.317 165.439 51.822 164.053 51.822C162.811 51.822 161.803 52.236 161.029 53.064C160.255 53.874 159.868 54.882 159.868 56.088C159.868 57.294 160.264 58.32 161.056 59.166C161.848 59.994 162.883 60.408 164.161 60.408C165.655 60.408 167.005 59.823 168.211 58.653L169.534 61.083C168.886 61.767 168.049 62.316 167.023 62.73C166.015 63.126 164.962 63.324 163.864 63.324C161.632 63.324 159.823 62.64 158.437 61.272C157.069 59.886 156.385 58.167 156.385 56.115Z" fill="#70F730"/>
<path d="M175.227 63V52.146H170.691V49.23H183.192V52.146H178.629V63H175.227Z" fill="#70F730"/>
<path d="M185.514 63V49.23H188.943V53.955H191.508C193.146 53.955 194.415 54.351 195.315 55.143C196.233 55.917 196.692 57.042 196.692 58.518C196.692 59.904 196.26 61.002 195.396 61.812C194.532 62.604 193.227 63 191.481 63H185.514ZM188.943 60.651H190.941C191.697 60.651 192.264 60.453 192.642 60.057C193.038 59.661 193.236 59.139 193.236 58.491C193.236 57.825 193.038 57.294 192.642 56.898C192.246 56.484 191.661 56.277 190.887 56.277H188.943V60.651Z" fill="#70F730"/>
</svg>
